# xmcd CD database file
#
# Track frame offsets:
#	150
#	17885
#	48040
#	72065
#	92740
#	108475
#	139170
#	161112
#	190665
#	204782
#
# Disc length: 3120 seconds
#
# Revision: 0
# Processed by: cddbd v1.5.2PL0 Copyright (c) Steve Scherf et al.
# Submitted via: CDex 1.51
#
DISCID=7e0c2e0a
DTITLE=Duke Robillard - A Swingin Session with Duke Robillard
DYEAR=2008
DGENRE=Jazz
TTITLE0=Deed I Do
TTITLE1=The Lonesome Road
TTITLE2=Them That Got
TTITLE3=Just Because
TTITLE4=Meet Me At No Special Place
TTITLE5=Red Dog
TTITLE6=They Raided The Joint
TTITLE7=When Your Lover Has Gone
TTITLE8=The Song Is Ended
TTITLE9=Swinging with Lucy Mae
EXTD=YEAR: 2008
EXTT0=
EXTT1=
EXTT2=
EXTT3=
EXTT4=
EXTT5=
EXTT6=
EXTT7=
EXTT8=
EXTT9=
PLAYORDER=
